# xmcd CD database file
#
# Track frame offsets:
#	180
#	19373
#	34441
#	49254
#	69659
#	83301
#	100055
#	113089
#	125168
#	143623
#	170058
#	189213
#	209287
#	223988
#
# Disc length: 3278 seconds
#
# Revision: 1
# Processed by: cddbd v1.5.2PL0 Copyright (c) Steve Scherf et al.
# Submitted via: CDex 1.51
#
DISCID=cd0ccc0e
DTITLE=Eric Clapton - U.S.A. Live 1994
DYEAR=1994
DGENRE=Blues
TTITLE0=Someday After A While
TTITLE1=It Hurts Me Too
TTITLE2=Hoochie Coochie Man
TTITLE3=Five Long Years
TTITLE4=I'm Tore Down
TTITLE5=Sinner's Prayer
TTITLE6=Motherless Child
TTITLE7=Malted Milk
TTITLE8=Born Under A bad Sign
TTITLE9=Crossroads
TTITLE10=Forty Four
TTITLE11=Ain't Nobody's Business
TTITLE12=I'm Tore Down (Version #2)
TTITLE13=Five Long Years (Version #2)
EXTD=YEAR: 1994
EXTT0=
EXTT1=
EXTT2=
EXTT3=
EXTT4=
EXTT5=
EXTT6=
EXTT7=
EXTT8=
EXTT9=
EXTT10=
EXTT11=
EXTT12=
EXTT13=
PLAYORDER=
